<svg xmlns="http://www.w3.org/2000/svg" xmlns:xlink="http://www.w3.org/1999/xlink" width="330" height="114" viewBox="0 0 330 114">
  <defs>
    <clipPath id="clip-path">
      <rect id="Rectangle_173" data-name="Rectangle 173" width="330" height="114" transform="translate(1449 7294.407)" fill="#fff" stroke="#707070" stroke-width="1"/>
    </clipPath>
  </defs>
  <g id="Mask_Group_12" data-name="Mask Group 12" transform="translate(-1449 -7294.407)" clip-path="url(#clip-path)">
    <g id="Layer_2" data-name="Layer 2" transform="translate(1455.216 7295.22)">
      <g id="Layer_1" data-name="Layer 1" transform="translate(0)">
        <path id="Path_122" data-name="Path 122" d="M216.408,3.19h44.838a3.4,3.4,0,0,1,3.4,3.4v3.731H213V6.594a3.4,3.4,0,0,1,3.408-3.4Z" transform="translate(-143.343 -2.147)" fill="#2b2e30"/>
        <path id="Path_123" data-name="Path 123" d="M514.881,1.06h44.841a3.4,3.4,0,0,1,3.4,3.4V8.209H511.48V4.464a3.4,3.4,0,0,1,3.4-3.4Z" transform="translate(-344.213 -0.713)" fill="#2b2e30"/>
        <path id="Path_124" data-name="Path 124" d="M813.341,3.19h44.841a3.4,3.4,0,0,1,3.4,3.4v3.731H809.94V6.594a3.4,3.4,0,0,1,3.4-3.4Z" transform="translate(-545.071 -2.147)" fill="#2b2e30"/>
        <path id="Path_125" data-name="Path 125" d="M1067.6,2.13h44.841a3.4,3.4,0,0,1,3.4,3.4V9.282H1064.2V5.531A3.4,3.4,0,0,1,1067.6,2.13Z" transform="translate(-716.182 -1.433)" fill="#2b2e30"/>
        <path id="Path_126" data-name="Path 126" d="M1348.761,0H1393.6a3.4,3.4,0,0,1,3.4,3.4V7.145H1345.36V3.4A3.4,3.4,0,0,1,1348.761,0Z" transform="translate(-905.397 0)" fill="#2b2e30"/>
        <path id="Path_127" data-name="Path 127" d="M1629.911,2.13h44.831a3.4,3.4,0,0,1,3.4,3.4V9.282H1626.51V5.531a3.4,3.4,0,0,1,3.4-3.4Z" transform="translate(-1094.605 -1.433)" fill="#2b2e30"/>
        <path id="Path_128" data-name="Path 128" d="M1911.071,1.06h44.841a3.4,3.4,0,0,1,3.4,3.4V8.209H1907.67V4.464a3.4,3.4,0,0,1,3.4-3.4Z" transform="translate(-1283.82 -0.713)" fill="#2b2e30"/>
        <rect id="Rectangle_141" data-name="Rectangle 141" width="302.684" height="10.913" transform="translate(20.653 83.744)" fill="#3a3b3f"/>
        <rect id="Rectangle_142" data-name="Rectangle 142" width="349.896" height="10.913" transform="translate(333.053 83.744)" fill="#3a3b3f"/>
        <path id="Path_129" data-name="Path 129" d="M31.629,110.962H.516s-1.174-33.268,0-41.721,48.137-56.015,54.848-56.9,267.968,0,267.968,0V94.154H44.337a12.185,12.185,0,0,0-11.2,7.387Z" transform="translate(0.006 -8.039)" fill="#df231f"/>
        <path id="Path_130" data-name="Path 130" d="M437.035,12.378s-261.257-.876-267.968,0l-.118.02V31.215H437.035Z" transform="translate(-113.698 -8.068)" fill="#47494f"/>
        <path id="Path_131" data-name="Path 131" d="M112.654,70.78S87.369,88.4,85.472,95.771s10.435,10.465,10.435,10.465H380.723V70.78Z" transform="translate(-57.385 -47.633)" fill="#df231f"/>
        <path id="Path_132" data-name="Path 132" d="M14.43,116.288l33.65-.422s24.425-23.218,23.99-23.078-37.591.7-37.591.7-4.274,3.95-9.624,10C18.017,111.229,14.43,116.288,14.43,116.288Z" transform="translate(-9.709 -62.444)" fill="#47494f"/>
        <path id="Path_133" data-name="Path 133" d="M17.82,117.69l30.868-.366S71.54,96.918,71.134,97.049s-35.711.582-35.711.582-3.463,3.5-8.47,8.83A79.434,79.434,0,0,0,17.82,117.69Z" transform="translate(-11.991 -65.311)" fill="#2b2e30"/>
        <rect id="Rectangle_143" data-name="Rectangle 143" width="42.732" height="20.874" rx="10.437" transform="translate(121.304 31.767)" fill="#47494f"/>
        <path id="Path_134" data-name="Path 134" d="M534.557,96.84h30.573a3.407,3.407,0,0,1,3.407,3.408V151.4H531.15V100.248A3.407,3.407,0,0,1,534.557,96.84Z" transform="translate(-357.451 -65.171)" fill="#47494f"/>
        <path id="Path_135" data-name="Path 135" d="M538.27,100.23h28.343a3.27,3.27,0,0,1,3.27,3.27v50.178H535V103.484A3.27,3.27,0,0,1,538.27,100.23Z" transform="translate(-360.042 -67.453)" fill="#d3e1ea"/>
        <rect id="Rectangle_144" data-name="Rectangle 144" width="8.807" height="24.997" rx="4.403" transform="translate(179.016 36.754)" fill="#2b2e30"/>
        <rect id="Rectangle_145" data-name="Rectangle 145" width="8.807" height="24.997" rx="4.403" transform="translate(196.201 36.754)" fill="#2b2e30"/>
        <rect id="Rectangle_146" data-name="Rectangle 146" width="1.266" height="53.985" transform="translate(192.009 32.241)" fill="#47494f"/>
        <path id="Path_136" data-name="Path 136" d="M173.036,219.331H0V211.11H173.036Z" transform="translate(0.002 -142.073)" fill="#909aa0"/>
        <path id="Path_137" data-name="Path 137" d="M764.291,219.331H652.23l.054-8.221H764.291Z" transform="translate(-440.954 -142.073)" fill="#909aa0"/>
        <path id="Path_138" data-name="Path 138" d="M24.668,180.894A28.063,28.063,0,0,0,23.8,189.6q.049,8.555.095,17.116c0,2.449.222,5.294,2.24,6.688a6.246,6.246,0,0,0,3.689.857c1.488-.026,3.179-.389,3.9-1.684a4.963,4.963,0,0,0,.327-2.878q-.507-5.919-1-11.841c-.281-3.345-.523-6.943,1.1-9.886a41.613,41.613,0,0,1,3.457-4.48c1.125-1.517,1.962-3.453,1.465-5.272a5.363,5.363,0,0,0-3.6-3.381C30.421,173.16,26.225,176,24.668,180.894Z" transform="translate(-16.014 -117.337)" fill="#fff" opacity="0.24"/>
        <circle id="Ellipse_25" data-name="Ellipse 25" cx="9.601" cy="9.601" r="9.601" transform="translate(45.651 93.688)" fill="#909aa0"/>
        <path id="Path_139" data-name="Path 139" d="M161.152,300.681a7.371,7.371,0,1,1-7.355-7.371A7.371,7.371,0,0,1,161.152,300.681Z" transform="translate(-98.529 -197.391)" fill="#646a6b"/>
        <circle id="Ellipse_26" data-name="Ellipse 26" cx="2.633" cy="2.633" r="2.633" transform="translate(52.619 100.657)" fill="#909aa0"/>
        <path id="Path_140" data-name="Path 140" d="M229.933,296.091a9.6,9.6,0,1,1-9.6-9.6A9.6,9.6,0,0,1,229.933,296.091Z" transform="translate(-141.815 -192.802)" fill="#909aa0"/>
        <path id="Path_141" data-name="Path 141" d="M232.292,300.681a7.371,7.371,0,1,1-7.371-7.371A7.371,7.371,0,0,1,232.292,300.681Z" transform="translate(-146.405 -197.391)" fill="#646a6b"/>
        <circle id="Ellipse_27" data-name="Ellipse 27" cx="2.633" cy="2.633" r="2.633" transform="translate(75.884 100.657)" fill="#909aa0"/>
        <path id="Path_142" data-name="Path 142" d="M301.059,296.091a9.6,9.6,0,1,1-9.6-9.6,9.6,9.6,0,0,1,9.6,9.6Z" transform="translate(-189.677 -192.802)" fill="#909aa0"/>
        <path id="Path_143" data-name="Path 143" d="M303.432,300.681a7.371,7.371,0,1,1-7.371-7.371A7.371,7.371,0,0,1,303.432,300.681Z" transform="translate(-194.28 -197.391)" fill="#646a6b"/>
        <circle id="Ellipse_28" data-name="Ellipse 28" cx="2.633" cy="2.633" r="2.633" transform="translate(99.148 100.657)" fill="#909aa0"/>
        <path id="Path_144" data-name="Path 144" d="M194.727,288.117l-2.194-10H116.438l-2.194,10-1.174,3.708h2.95l2.413-3.708h72.1l2.417,3.708h2.95Z" transform="translate(-76.092 -187.169)" fill="#2b2e30"/>
        <circle id="Ellipse_29" data-name="Ellipse 29" cx="9.601" cy="9.601" r="9.601" transform="translate(248.793 93.688)" fill="#909aa0"/>
        <path id="Path_145" data-name="Path 145" d="M782.332,300.681a7.371,7.371,0,1,1-7.368-7.371A7.371,7.371,0,0,1,782.332,300.681Z" transform="translate(-516.57 -197.391)" fill="#646a6b"/>
        <circle id="Ellipse_30" data-name="Ellipse 30" cx="2.633" cy="2.633" r="2.633" transform="translate(255.762 100.657)" fill="#909aa0"/>
        <path id="Path_146" data-name="Path 146" d="M851.109,296.091a9.6,9.6,0,1,1-9.6-9.6,9.6,9.6,0,0,1,9.6,9.6Z" transform="translate(-559.849 -192.802)" fill="#909aa0"/>
        <path id="Path_147" data-name="Path 147" d="M853.472,300.681a7.371,7.371,0,1,1-7.371-7.371A7.371,7.371,0,0,1,853.472,300.681Z" transform="translate(-564.446 -197.391)" fill="#646a6b"/>
        <circle id="Ellipse_31" data-name="Ellipse 31" cx="2.633" cy="2.633" r="2.633" transform="translate(279.023 100.657)" fill="#909aa0"/>
        <path id="Path_148" data-name="Path 148" d="M922.249,296.091a9.6,9.6,0,1,1-9.6-9.6,9.6,9.6,0,0,1,9.6,9.6Z" transform="translate(-607.725 -192.802)" fill="#909aa0"/>
        <path id="Path_149" data-name="Path 149" d="M924.662,300.681a7.371,7.371,0,1,1-7.371-7.371,7.371,7.371,0,0,1,7.371,7.371Z" transform="translate(-612.355 -197.391)" fill="#646a6b"/>
        <circle id="Ellipse_32" data-name="Ellipse 32" cx="2.633" cy="2.633" r="2.633" transform="translate(302.287 100.657)" fill="#909aa0"/>
        <path id="Path_150" data-name="Path 150" d="M815.917,288.117l-2.2-10H737.628l-2.2,10-1.171,3.708h2.946l2.417-3.708h72.1l2.417,3.708h2.947Z" transform="translate(-494.14 -187.169)" fill="#2b2e30"/>
        <circle id="Ellipse_33" data-name="Ellipse 33" cx="9.601" cy="9.601" r="9.601" transform="translate(351.311 93.688)" fill="#909aa0"/>
        <path id="Path_151" data-name="Path 151" d="M1095.832,300.681a7.371,7.371,0,1,1-7.371-7.371A7.371,7.371,0,0,1,1095.832,300.681Z" transform="translate(-727.549 -197.391)" fill="#646a6b"/>
        <circle id="Ellipse_34" data-name="Ellipse 34" cx="2.633" cy="2.633" r="2.633" transform="translate(358.279 100.657)" fill="#909aa0"/>
        <path id="Path_152" data-name="Path 152" d="M1164.613,296.091a9.6,9.6,0,1,1-9.6-9.6A9.6,9.6,0,0,1,1164.613,296.091Z" transform="translate(-770.835 -192.802)" fill="#909aa0"/>
        <path id="Path_153" data-name="Path 153" d="M1166.972,300.681a7.371,7.371,0,1,1-7.371-7.371A7.371,7.371,0,0,1,1166.972,300.681Z" transform="translate(-775.425 -197.391)" fill="#646a6b"/>
        <circle id="Ellipse_35" data-name="Ellipse 35" cx="2.633" cy="2.633" r="2.633" transform="translate(381.544 100.657)" fill="#909aa0"/>
        <path id="Path_154" data-name="Path 154" d="M1235.753,296.091a9.6,9.6,0,1,1-9.6-9.6A9.6,9.6,0,0,1,1235.753,296.091Z" transform="translate(-818.711 -192.802)" fill="#909aa0"/>
        <path id="Path_155" data-name="Path 155" d="M1238.112,300.681a7.371,7.371,0,1,1-7.371-7.371A7.371,7.371,0,0,1,1238.112,300.681Z" transform="translate(-823.3 -197.391)" fill="#646a6b"/>
        <path id="Path_156" data-name="Path 156" d="M1243.165,310.432a2.633,2.633,0,1,1-2.616-2.633A2.632,2.632,0,0,1,1243.165,310.432Z" transform="translate(-833.079 -207.143)" fill="#909aa0"/>
        <path id="Path_157" data-name="Path 157" d="M1129.414,288.117l-2.194-10h-76.094l-2.194,10-1.171,3.708h2.947l2.413-3.708h72.1l2.417,3.708h2.946Z" transform="translate(-705.119 -187.169)" fill="#2b2e30"/>
        <circle id="Ellipse_36" data-name="Ellipse 36" cx="9.601" cy="9.601" r="9.601" transform="translate(599.199 93.688)" fill="#909aa0"/>
        <path id="Path_158" data-name="Path 158" d="M1853.852,300.681a7.371,7.371,0,1,1-7.371-7.371A7.371,7.371,0,0,1,1853.852,300.681Z" transform="translate(-1237.68 -197.391)" fill="#646a6b"/>
        <circle id="Ellipse_37" data-name="Ellipse 37" cx="2.633" cy="2.633" r="2.633" transform="translate(606.168 100.657)" fill="#909aa0"/>
        <path id="Path_159" data-name="Path 159" d="M1922.619,296.091a9.6,9.6,0,1,1-9.6-9.6,9.6,9.6,0,0,1,9.6,9.6Z" transform="translate(-1280.953 -192.802)" fill="#909aa0"/>
        <path id="Path_160" data-name="Path 160" d="M1924.982,300.681a7.371,7.371,0,1,1-7.368-7.371A7.371,7.371,0,0,1,1924.982,300.681Z" transform="translate(-1285.549 -197.391)" fill="#646a6b"/>
        <circle id="Ellipse_38" data-name="Ellipse 38" cx="2.633" cy="2.633" r="2.633" transform="translate(629.432 100.657)" fill="#909aa0"/>
        <path id="Path_161" data-name="Path 161" d="M1993.759,296.091a9.6,9.6,0,1,1-9.6-9.6,9.6,9.6,0,0,1,9.6,9.6Z" transform="translate(-1328.829 -192.802)" fill="#909aa0"/>
        <path id="Path_162" data-name="Path 162" d="M1996.122,300.681a7.371,7.371,0,1,1-7.371-7.371A7.371,7.371,0,0,1,1996.122,300.681Z" transform="translate(-1333.425 -197.391)" fill="#646a6b"/>
        <circle id="Ellipse_39" data-name="Ellipse 39" cx="2.633" cy="2.633" r="2.633" transform="translate(652.693 100.657)" fill="#909aa0"/>
        <path id="Path_163" data-name="Path 163" d="M1887.427,288.117l-2.2-10h-76.091l-2.2,10-1.171,3.708h2.946l2.417-3.708h72.1l2.417,3.708h2.947Z" transform="translate(-1215.243 -187.169)" fill="#2b2e30"/>
        <rect id="Rectangle_147" data-name="Rectangle 147" width="42.729" height="20.874" rx="3" transform="translate(67.384 31.734)" fill="#47494f"/>
        <rect id="Rectangle_148" data-name="Rectangle 148" width="39.331" height="18.594" rx="3" transform="translate(69.085 32.709)" fill="#2b2e30"/>
        <path id="Path_164" data-name="Path 164" d="M221.365,100.02,211.25,111.057l.043,3.3L224.87,100.02Z" transform="translate(-142.165 -67.311)" fill="#fff" opacity="0.12"/>
        <path id="Path_165" data-name="Path 165" d="M239.5,118.6,255.563,100H261.4s-12.777,18.594-13.081,18.594Z" transform="translate(-161.177 -67.298)" fill="#fff" opacity="0.12"/>
        <path id="Path_166" data-name="Path 166" d="M292.86,131.563c.147,0,12.639-12.3,12.639-12.3v3.094l-6.652,9.209Z" transform="translate(-197.087 -80.259)" fill="#fff" opacity="0.12"/>
        <rect id="Rectangle_149" data-name="Rectangle 149" width="42.732" height="20.874" rx="3" transform="translate(121.304 31.816)" fill="#47494f"/>
        <rect id="Rectangle_150" data-name="Rectangle 150" width="39.331" height="18.594" rx="3" transform="translate(123.004 32.79)" fill="#2b2e30"/>
        <path id="Path_167" data-name="Path 167" d="M386.248,100.27,376.13,111.307l.043,3.3,13.581-14.333Z" transform="translate(-253.126 -67.48)" fill="#fff" opacity="0.12"/>
        <path id="Path_168" data-name="Path 168" d="M404.39,118.864l16.063-18.594h5.841s-12.777,18.594-13.081,18.594Z" transform="translate(-272.144 -67.48)" fill="#fff" opacity="0.12"/>
        <path id="Path_169" data-name="Path 169" d="M457.75,131.813c.147,0,12.639-12.3,12.639-12.3v3.1l-6.652,9.212Z" transform="translate(-308.054 -80.428)" fill="#fff" opacity="0.12"/>
        <rect id="Rectangle_151" data-name="Rectangle 151" width="42.729" height="20.874" rx="3" transform="translate(219.103 31.773)" fill="#47494f"/>
        <rect id="Rectangle_152" data-name="Rectangle 152" width="39.331" height="18.594" rx="3" transform="translate(220.803 32.751)" fill="#2b2e30"/>
        <path id="Path_170" data-name="Path 170" d="M685.3,100.14,675.19,111.18l.043,3.293L688.81,100.14Z" transform="translate(-454.387 -67.392)" fill="#fff" opacity="0.12"/>
        <path id="Path_171" data-name="Path 171" d="M703.44,118.734,719.5,100.14h5.841s-12.777,18.594-13.068,18.594Z" transform="translate(-473.399 -67.392)" fill="#fff" opacity="0.12"/>
        <path id="Path_172" data-name="Path 172" d="M756.8,131.683c.147,0,12.639-12.3,12.639-12.3v3.09l-6.652,9.212Z" transform="translate(-509.309 -80.34)" fill="#fff" opacity="0.12"/>
        <rect id="Rectangle_153" data-name="Rectangle 153" width="42.732" height="20.874" rx="3" transform="translate(273.022 31.855)" fill="#47494f"/>
        <rect id="Rectangle_154" data-name="Rectangle 154" width="39.331" height="18.594" rx="3" transform="translate(274.722 32.83)" fill="#2b2e30"/>
        <path id="Path_173" data-name="Path 173" d="M850.188,100.39,840.07,111.43l.043,3.293,13.581-14.333Z" transform="translate(-565.348 -67.56)" fill="#fff" opacity="0.12"/>
        <path id="Path_174" data-name="Path 174" d="M868.33,118.988l16.063-18.6h5.841s-12.777,18.6-13.081,18.6Z" transform="translate(-584.366 -67.56)" fill="#fff" opacity="0.12"/>
        <path id="Path_175" data-name="Path 175" d="M921.69,131.936c.147,0,12.639-12.306,12.639-12.306v3.094l-6.652,9.212Z" transform="translate(-620.276 -80.508)" fill="#fff" opacity="0.12"/>
        <path id="Path_176" data-name="Path 176" d="M19.8,115.706l24.7-17.4L49.4,98.24c-.239,0-26.871,20.2-26.871,20.2l-4.683.056Z" transform="translate(-12.011 -66.113)" fill="#fff" opacity="0.12"/>
        <path id="Path_177" data-name="Path 177" d="M63,117.609l31.512-20.3,5.837-.118c-.239,0-24.742,20.275-24.742,20.275Z" transform="translate(-42.396 -65.407)" fill="#fff" opacity="0.27"/>
        <path id="Path_178" data-name="Path 178" d="M243.827,22.923a60.574,60.574,0,0,0,8.98-.6,2.565,2.565,0,0,0,1.841-.9,1.821,1.821,0,0,0-.939-2.417,5.392,5.392,0,0,0-2.871-.268c-27.434,2.387-55.008-.932-82.54-1.357-2.767-.043-5.746,0-8.27,1.308-1.962,1.02-3.143,3.247-.327,4.268,2.669.981,7.054-.108,9.876-.206q5.118-.177,10.236-.235c13.735-.173,27.45.177,41.175.366C228.588,22.975,236.207,23.031,243.827,22.923Z" transform="translate(-106.349 -11.69)" fill="#fff" opacity="0.24"/>
        <path id="Path_179" data-name="Path 179" d="M479.814,25.2l16.972.327c4.215.078,8.5.15,12.574-.909a1.909,1.909,0,0,0,.981-.491,1.378,1.378,0,0,0-.471-1.943,3.984,3.984,0,0,0-2.194-.432l-20.432.016h-5.1c-1.158,0-3.087-.379-4.169.131C475.275,23.167,477.852,25.165,479.814,25.2Z" transform="translate(-320.88 -14.56)" fill="#fff" opacity="0.24"/>
        <rect id="Rectangle_155" data-name="Rectangle 155" width="9.716" height="64.721" transform="translate(323.337 17.783)" fill="#3a3b3f"/>
        <rect id="Rectangle_156" data-name="Rectangle 156" width="349.896" height="81.497" transform="translate(333.053 4.526)" fill="#e0524b"/>
        <rect id="Rectangle_157" data-name="Rectangle 157" width="349.896" height="17.839" transform="translate(333.053 4.526)" fill="#47494f"/>
        <rect id="Rectangle_158" data-name="Rectangle 158" width="349.896" height="36.237" transform="translate(333.053 22.362)" fill="#909aa0"/>
        <path id="Path_180" data-name="Path 180" d="M1193.987,95.77h30.573a3.407,3.407,0,0,1,3.407,3.408V150.33H1190.58V99.178a3.407,3.407,0,0,1,3.407-3.408Z" transform="translate(-801.233 -64.451)" fill="#47494f"/>
        <path id="Path_181" data-name="Path 181" d="M1197.707,99.16h28.343a3.27,3.27,0,0,1,3.27,3.27v50.181h-34.87V102.417A3.27,3.27,0,0,1,1197.707,99.16Z" transform="translate(-803.838 -66.733)" fill="#d3e1ea"/>
        <rect id="Rectangle_159" data-name="Rectangle 159" width="8.807" height="24.997" rx="4.403" transform="translate(394.661 36.404)" fill="#2b2e30"/>
        <rect id="Rectangle_160" data-name="Rectangle 160" width="8.807" height="24.997" rx="4.403" transform="translate(411.846 36.404)" fill="#2b2e30"/>
        <rect id="Rectangle_161" data-name="Rectangle 161" width="1.266" height="53.985" transform="translate(407.656 31.894)" fill="#47494f"/>
        <path id="Path_182" data-name="Path 182" d="M1809.177,95.77h30.573a3.408,3.408,0,0,1,3.408,3.408V150.33H1805.77V99.178a3.408,3.408,0,0,1,3.407-3.408Z" transform="translate(-1215.243 -64.451)" fill="#47494f"/>
        <path id="Path_183" data-name="Path 183" d="M1812.9,99.16h28.343a3.27,3.27,0,0,1,3.27,3.27v50.181h-34.87V102.417A3.27,3.27,0,0,1,1812.9,99.16Z" transform="translate(-1217.848 -66.733)" fill="#d3e1ea"/>
        <rect id="Rectangle_162" data-name="Rectangle 162" width="8.807" height="24.997" rx="4.403" transform="translate(595.841 36.404)" fill="#2b2e30"/>
        <rect id="Rectangle_163" data-name="Rectangle 163" width="8.807" height="24.997" rx="4.403" transform="translate(613.026 36.404)" fill="#2b2e30"/>
        <rect id="Rectangle_164" data-name="Rectangle 164" width="1.266" height="53.985" transform="translate(608.836 31.894)" fill="#47494f"/>
        <rect id="Rectangle_165" data-name="Rectangle 165" width="42.732" height="20.874" rx="10.437" transform="translate(338.39 31.855)" fill="#47494f"/>
        <rect id="Rectangle_166" data-name="Rectangle 166" width="39.331" height="18.594" rx="9.297" transform="translate(340.091 32.83)" fill="#2b2e30"/>
        <path id="Path_184" data-name="Path 184" d="M1050.075,100.39l-10.115,11.04.042,3.293,13.578-14.333Z" transform="translate(-699.869 -67.56)" fill="#fff" opacity="0.12"/>
        <path id="Path_185" data-name="Path 185" d="M1068.22,118.988l16.06-18.6h5.841s-12.777,18.6-13.081,18.6Z" transform="translate(-718.888 -67.56)" fill="#fff" opacity="0.12"/>
        <path id="Path_186" data-name="Path 186" d="M1121.57,131.936c.147,0,12.639-12.306,12.639-12.306v3.094l-6.651,9.212Z" transform="translate(-754.791 -80.508)" fill="#fff" opacity="0.12"/>
        <path id="Path_187" data-name="Path 187" d="M1945.182,93.07h31.924a5.406,5.406,0,0,1,5.406,5.406v10.066a5.406,5.406,0,0,1-5.406,5.406h-31.924a5.4,5.4,0,0,1-5.4-5.4V98.472A5.4,5.4,0,0,1,1945.182,93.07Z" transform="translate(-1305.429 -62.634)" fill="#47494f"/>
        <rect id="Rectangle_167" data-name="Rectangle 167" width="39.328" height="18.594" rx="9.297" transform="translate(636.048 31.41)" fill="#2b2e30"/>
        <path id="Path_188" data-name="Path 188" d="M1955.088,96.05l-10.118,11.037.042,3.3,13.581-14.333Z" transform="translate(-1308.922 -64.64)" fill="#fff" opacity="0.12"/>
        <path id="Path_189" data-name="Path 189" d="M1973.23,114.644l16.063-18.594h5.841s-12.777,18.594-13.081,18.594Z" transform="translate(-1327.941 -64.64)" fill="#fff" opacity="0.12"/>
        <path id="Path_190" data-name="Path 190" d="M2026.59,127.593c.147,0,12.639-12.3,12.639-12.3v3.094l-6.652,9.209Z" transform="translate(-1363.85 -77.588)" fill="#fff" opacity="0.12"/>
        <rect id="Rectangle_168" data-name="Rectangle 168" width="42.729" height="20.874" rx="10.437" transform="translate(435.169 31.515)" fill="#47494f"/>
        <rect id="Rectangle_169" data-name="Rectangle 169" width="39.331" height="18.594" rx="9.297" transform="translate(436.866 32.493)" fill="#2b2e30"/>
        <path id="Path_191" data-name="Path 191" d="M1346.008,99.36,1335.89,110.4l.042,3.293,13.581-14.33Z" transform="translate(-899.024 -66.867)" fill="#fff" opacity="0.12"/>
        <path id="Path_192" data-name="Path 192" d="M1364.15,117.954l16.063-18.594h5.84s-12.777,18.594-13.081,18.594Z" transform="translate(-918.042 -66.867)" fill="#fff" opacity="0.12"/>
        <path id="Path_193" data-name="Path 193" d="M1417.51,130.9c.147,0,12.639-12.3,12.639-12.3v3.09L1423.5,130.9Z" transform="translate(-953.953 -79.815)" fill="#fff" opacity="0.12"/>
        <rect id="Rectangle_170" data-name="Rectangle 170" width="42.729" height="20.874" rx="10.437" transform="translate(489.088 31.597)" fill="#47494f"/>
        <rect id="Rectangle_171" data-name="Rectangle 171" width="39.331" height="18.594" rx="9.297" transform="translate(490.788 32.571)" fill="#2b2e30"/>
        <path id="Path_194" data-name="Path 194" d="M1510.9,99.6l-10.118,11.037.043,3.3L1514.4,99.6Z" transform="translate(-1009.992 -67.029)" fill="#fff" opacity="0.12"/>
        <path id="Path_195" data-name="Path 195" d="M1529,118.2l16.06-18.6h5.85s-12.777,18.6-13.081,18.6Z" transform="translate(-1028.983 -67.029)" fill="#fff" opacity="0.12"/>
        <path id="Path_196" data-name="Path 196" d="M1582.4,131.146c.144,0,12.64-12.306,12.64-12.306v3.094l-6.655,9.212Z" transform="translate(-1064.92 -79.977)" fill="#fff" opacity="0.12"/>
        <path id="Path_197" data-name="Path 197" d="M1662.262,96.62h31.924a5.406,5.406,0,0,1,5.406,5.406v10.066a5.406,5.406,0,0,1-5.406,5.4h-31.924a5.4,5.4,0,0,1-5.4-5.4V102.026A5.4,5.4,0,0,1,1662.262,96.62Z" transform="translate(-1115.03 -65.023)" fill="#47494f"/>
        <rect id="Rectangle_172" data-name="Rectangle 172" width="39.331" height="18.594" rx="9.297" transform="translate(543.53 32.571)" fill="#2b2e30"/>
        <path id="Path_198" data-name="Path 198" d="M1672.178,99.6l-10.118,11.037.042,3.3L1675.68,99.6Z" transform="translate(-1118.53 -67.029)" fill="#fff" opacity="0.12"/>
        <path id="Path_199" data-name="Path 199" d="M1690.32,118.2l16.06-18.6h5.844s-12.78,18.6-13.081,18.6Z" transform="translate(-1137.548 -67.029)" fill="#fff" opacity="0.12"/>
        <path id="Path_200" data-name="Path 200" d="M1743.68,131.146c.144,0,12.64-12.306,12.64-12.306v3.094l-6.648,9.212Z" transform="translate(-1173.458 -79.977)" fill="#fff" opacity="0.12"/>
        <path id="Path_201" data-name="Path 201" d="M1988.379,219.331h-48.6l9.47-8.221h39.128Z" transform="translate(-1305.429 -142.073)" fill="#909aa0"/>
        <path id="Path_202" data-name="Path 202" d="M1057.346,219.331H1018.47V211.11h48.383Z" transform="translate(-685.407 -142.073)" fill="#909aa0"/>
        <path id="Path_203" data-name="Path 203" d="M1437.891,211.11h-97.008l-12.054,8.221h140.495l9.51-8.221Z" transform="translate(-894.273 -142.073)" fill="#909aa0"/>
        <path id="Path_204" data-name="Path 204" d="M1156.527,27.971c3.787.128,7.639.255,11.292-.746a2.433,2.433,0,0,0,1.344-.729,1.778,1.778,0,0,0-.69-2.42,5.132,5.132,0,0,0-2.75-.517l-95.533-.131h-11.878c-3.316,0-7.312-.621-10.5.474-1.808.621-4.745,2.328-2.616,4.274,2.063,1.887,8.594.239,11.119.072,15.73-1.037,31.5-1.409,47.258-1.393Q1130.042,26.872,1156.527,27.971Z" transform="translate(-702.895 -15.649)" fill="#fff" opacity="0.24"/>
        <path id="Path_205" data-name="Path 205" d="M1499.048,28.509c4.529.075,9.121.144,13.509-.981a2.6,2.6,0,0,0,1.586-.87,1.873,1.873,0,0,0-.8-2.5,5.344,5.344,0,0,0-2.871-.481c-7.195.173-14.409.863-21.623.889-3.326,0-6.648-.121-9.968-.252-2.266-.088-21.187-2.217-20.023,2.126.72,2.688,9.157,1.553,11.191,1.589l13.735.226Z" transform="translate(-981.742 -15.928)" fill="#fff" opacity="0.24"/>
      </g>
    </g>
  </g>
</svg>
